<?xml version="1.0" encoding="utf-8"?>
<!-- Generator: Adobe Illustrator 24.3.0, SVG Export Plug-In . SVG Version: 6.00 Build 0)  -->
<svg version="1.1" id="Layer_1" xmlns="http://www.w3.org/2000/svg" xmlns:xlink="http://www.w3.org/1999/xlink" x="0px" y="0px"
	 viewBox="0 0 432 227.96" style="enable-background:new 0 0 432 227.96;" xml:space="preserve">
<style type="text/css">
	.st0{fill:#EAE7E4;}
	.st1{fill:#5B6670;}
	.st2{fill:#C37335;}
	.st3{fill:#FFFFFF;}
	.st4{fill:#24272A;}
</style>
<g>
	<g>
		<defs>
			<path id="SVGID_5_" d="M407.73,47.1l19.01,19.01l-19.01,19.01h-24.7V47.1H407.73z M426.74,24.01L407.73,5h-24.7v38.02h24.7
				L426.74,24.01z M346.62,21.16v63.96h32.32V21.16L362.79,5L346.62,21.16z"/>
		</defs>
		<use xlink:href="#SVGID_5_"  style="overflow:visible;fill:#C37335;"/>
		<clipPath id="SVGID_2_">
			<use xlink:href="#SVGID_5_"  style="overflow:visible;"/>
		</clipPath>
	</g>
	<g>
		<g>
			<path class="st0" d="M116.05,188.26c0,16.44-17.11,33.72-48.31,33.72H5l1.34-5.54l3.02-0.34c7.05-0.84,11.07-4.36,13.08-13.08
				l18.12-78c0.34-1.51,0.5-3.19,0.5-4.53c0-5.87-3.02-9.56-8.55-10.06l-3.69-0.34l1.34-5.54h57.87c21.81,0,33.21,11.57,33.21,23.99
				c0,14.76-14.59,30.86-42.94,31.54C103.97,161.09,116.05,174.34,116.05,188.26z M80.65,184.24c0-11.24-4.86-21.14-15.1-21.14
				h-2.01l-8.89,38.24c-0.67,2.68-1.01,5.2-1.01,7.38c0,4.86,1.85,8.39,6.88,8.39h0.17C72.1,217.12,80.65,199.5,80.65,184.24z
				 M64.72,158.41h3.02c13.08,0,19.79-15.77,19.79-29.36c0-10.4-3.69-19.79-10.74-19.79h-0.84L64.72,158.41z"/>
			<path class="st0" d="M125.61,185.08c0-29.52,21.81-51.83,51.83-51.83c26,0,38.58,16.78,38.58,39.25c0,29.36-21.64,51.33-52,51.33
				C137.52,223.83,125.61,206.89,125.61,185.08z M184.48,156.73c0-12.92-2.52-20.97-6.37-20.97c-9.23,0-20.63,34.56-20.63,64.41
				c0,12.92,2.52,20.97,6.37,20.97C173.08,221.14,184.48,186.59,184.48,156.73z"/>
			<path class="st0" d="M251.75,204.03c0,6.54,2.85,9.23,8.55,9.23c2.01,0,4.86-0.33,7.38-1.34l-0.84,4.03
				c-6.54,4.03-16.61,7.05-25.33,7.05c-12.58,0-19.46-6.54-19.46-18.96c0-5.2,1.17-10.23,1.68-12.41l17.28-74.31
				c0.33-1.51,0.5-2.85,0.5-4.36c0-5.37-2.68-8.72-7.04-8.72h-0.34l1.17-5.03l41.27-5.7l-23.32,100.65
				C252.25,198.16,251.75,201.18,251.75,204.03z"/>
			<path class="st0" d="M352.56,159.08h-30.03c0.5-2.68,0.67-4.53,0.67-6.54c0-9.39-4.53-16.77-10.74-16.77
				c-5.37,0-9.73,5.03-9.73,11.24c0,8.72,8.56,12.25,16.77,15.94c12.58,5.7,27.85,12.41,27.85,31.87
				c0,17.78-12.75,29.02-33.38,29.02c-22.31,0-39.59-13.08-39.59-29.52h30.03c-0.5,2.68-0.67,5.37-0.67,7.38
				c0,11.57,5.37,19.63,13.25,19.63c6.71,0,10.74-5.7,10.74-12.41c0-10.74-10.23-14.43-20.97-19.63
				c-11.41-5.54-23.82-12.08-23.82-28.68c0-16.1,11.74-27.34,32.54-27.34C336.79,133.24,352.56,144.32,352.56,159.08z"/>
			<path class="st0" d="M393.99,195.98c-0.5,2.18-0.84,4.7-0.84,7.05c0,6.37,2.52,10.74,8.72,10.74c2.35,0,5.03-0.67,8.39-2.01
				l-0.67,3.35c-8.89,5.54-18.62,8.72-26.84,8.72c-12.08,0-20.3-6.54-20.3-19.79c0-3.69,0.67-7.21,1.34-10.06l13.08-55.36h-12.25
				l0.84-3.69c9.73-2.18,29.36-7.55,42.44-21.14h4.7l-4.86,21.14h17.78l-1.17,4.36h-17.61L393.99,195.98z"/>
		</g>
	</g>
</g>
</svg>
