<?xml version="1.0" encoding="utf-8"?>
<!-- Generator: Adobe Illustrator 24.3.0, SVG Export Plug-In . SVG Version: 6.00 Build 0)  -->
<svg version="1.1" id="Layer_1" xmlns="http://www.w3.org/2000/svg" xmlns:xlink="http://www.w3.org/1999/xlink" x="0px" y="0px"
	 viewBox="0 0 432 363.99" style="enable-background:new 0 0 432 363.99;" xml:space="preserve">
<style type="text/css">
	.st0{fill:#EAE7E4;}
	.st1{fill:#5B6670;}
	.st2{fill:#C37335;}
	.st3{fill:#FFFFFF;}
	.st4{fill:#24272A;}
</style>
<g>
	<path class="st0" d="M117.85,323.16c0,16.37-17.04,33.58-48.11,33.58H7.27l1.34-5.51l3.01-0.34c7.02-0.83,11.02-4.34,13.03-13.03
		l18.04-77.68c0.33-1.5,0.5-3.17,0.5-4.51c0-5.85-3.01-9.52-8.52-10.02l-3.68-0.34l1.34-5.51h57.63c21.72,0,33.08,11.53,33.08,23.89
		c0,14.7-14.54,30.74-42.77,31.41C105.83,296.1,117.85,309.3,117.85,323.16z M82.61,319.15c0-11.19-4.84-21.05-15.03-21.05h-2
		l-8.85,38.09c-0.67,2.67-1,5.18-1,7.35c0,4.84,1.84,8.35,6.85,8.35h0.17C74.09,351.9,82.61,334.35,82.61,319.15z M66.74,293.43
		h3.01c13.03,0,19.71-15.7,19.71-29.23c0-10.36-3.68-19.71-10.69-19.71h-0.83L66.74,293.43z"/>
	<path class="st0" d="M127.39,319.99c0-29.4,21.72-51.62,51.62-51.62c25.89,0,38.42,16.7,38.42,39.09
		c0,29.23-21.55,51.12-51.78,51.12C139.25,358.58,127.39,341.71,127.39,319.99z M186.02,291.76c0-12.86-2.51-20.88-6.35-20.88
		c-9.19,0-20.55,34.41-20.55,64.15c0,12.86,2.51,20.88,6.35,20.88C174.66,355.9,186.02,321.49,186.02,291.76z"/>
	<path class="st0" d="M253.02,338.86c0,6.52,2.84,9.19,8.52,9.19c2.01,0,4.85-0.34,7.35-1.34l-0.83,4.01
		c-6.52,4.01-16.54,7.02-25.23,7.02c-12.53,0-19.38-6.51-19.38-18.88c0-5.18,1.17-10.19,1.67-12.36l17.21-74
		c0.33-1.5,0.5-2.84,0.5-4.34c0-5.35-2.67-8.69-7.02-8.69h-0.33l1.17-5.01l41.1-5.68l-23.22,100.23
		C253.52,333.02,253.02,336.03,253.02,338.86z"/>
	<path class="st0" d="M353.42,294.1h-29.9c0.5-2.67,0.67-4.51,0.67-6.52c0-9.35-4.51-16.7-10.69-16.7c-5.35,0-9.69,5.01-9.69,11.19
		c0,8.69,8.52,12.19,16.71,15.87c12.53,5.68,27.73,12.36,27.73,31.74c0,17.71-12.69,28.9-33.24,28.9
		c-22.22,0-39.42-13.03-39.42-29.4h29.9c-0.5,2.67-0.67,5.35-0.67,7.35c0,11.53,5.35,19.54,13.2,19.54
		c6.68,0,10.69-5.68,10.69-12.36c0-10.69-10.19-14.36-20.88-19.54c-11.36-5.51-23.72-12.03-23.72-28.57
		c0-16.04,11.69-27.23,32.41-27.23C337.72,268.37,353.42,279.39,353.42,294.1z"/>
	<path class="st0" d="M394.69,330.85c-0.5,2.17-0.83,4.68-0.83,7.02c0,6.35,2.5,10.69,8.69,10.69c2.34,0,5.01-0.67,8.35-2.01
		l-0.67,3.34c-8.85,5.51-18.54,8.69-26.73,8.69c-12.03,0-20.21-6.51-20.21-19.71c0-3.67,0.67-7.18,1.34-10.02l13.03-55.13h-12.19
		l0.83-3.68c9.69-2.17,29.23-7.52,42.26-21.05h4.68l-4.85,21.05h17.71l-1.17,4.34h-17.54L394.69,330.85z"/>
</g>
<g>
	<polygon class="st2" points="219.44,95.3 219.44,175.93 271.81,175.93 312.12,135.61 271.81,95.3 	"/>
	<polygon class="st2" points="312.12,46.34 271.81,6.03 219.44,6.03 219.44,86.65 271.81,86.65 	"/>
	<polygon class="st2" points="142.25,40.3 142.25,175.93 210.79,175.93 210.79,40.3 176.52,6.03 	"/>
</g>
</svg>
