<?xml version="1.0" encoding="utf-8"?>
<!-- Generator: Adobe Illustrator 24.3.0, SVG Export Plug-In . SVG Version: 6.00 Build 0)  -->
<svg version="1.1" id="Layer_1" xmlns="http://www.w3.org/2000/svg" xmlns:xlink="http://www.w3.org/1999/xlink" x="0px" y="0px"
	 viewBox="0 0 432 126.6" style="enable-background:new 0 0 432 126.6;" xml:space="preserve">
<style type="text/css">
	.st0{fill:#EAE7E4;}
	.st1{fill:#5B6670;}
	.st2{fill:#C37335;}
	.st3{fill:#FFFFFF;}
	.st4{fill:#24272A;}
</style>
<g>
	<path class="st4" d="M219.26,80.34c0,11.01-11.46,22.58-32.35,22.58h-42.01l0.9-3.71l2.02-0.22c4.72-0.56,7.41-2.92,8.76-8.76
		L168.72,38c0.23-1.01,0.34-2.13,0.34-3.03c0-3.93-2.02-6.4-5.73-6.74l-2.47-0.22l0.9-3.71h38.75c14.6,0,22.24,7.75,22.24,16.06
		c0,9.88-9.77,20.67-28.75,21.11C211.18,62.15,219.26,71.02,219.26,80.34z M195.57,77.65c0-7.53-3.26-14.15-10.11-14.15h-1.35
		l-5.95,25.61c-0.45,1.8-0.67,3.48-0.67,4.94c0,3.26,1.24,5.62,4.6,5.62h0.11C189.84,99.66,195.57,87.87,195.57,77.65z M184.9,60.35
		h2.02c8.76,0,13.25-10.56,13.25-19.65c0-6.96-2.47-13.25-7.19-13.25h-0.56L184.9,60.35z"/>
	<path class="st4" d="M225.67,78.21c0-19.77,14.6-34.7,34.71-34.7c17.41,0,25.83,11.23,25.83,26.28c0,19.66-14.49,34.37-34.82,34.37
		C233.65,104.16,225.67,92.81,225.67,78.21z M265.1,59.23c0-8.65-1.68-14.04-4.27-14.04c-6.18,0-13.81,23.14-13.81,43.13
		c0,8.65,1.68,14.04,4.27,14.04C257.46,102.36,265.1,79.22,265.1,59.23z"/>
	<path class="st4" d="M310.14,90.9c0,4.38,1.91,6.18,5.73,6.18c1.35,0,3.26-0.22,4.94-0.9l-0.56,2.7
		c-4.38,2.7-11.12,4.72-16.96,4.72c-8.42,0-13.03-4.38-13.03-12.69c0-3.48,0.79-6.85,1.12-8.31l11.57-49.76
		c0.22-1.01,0.34-1.91,0.34-2.92c0-3.59-1.8-5.84-4.72-5.84h-0.23l0.79-3.37l27.63-3.82l-15.61,67.39
		C310.48,86.97,310.14,88.99,310.14,90.9z"/>
	<path class="st4" d="M377.64,60.8h-20.1c0.34-1.8,0.45-3.03,0.45-4.38c0-6.29-3.03-11.23-7.19-11.23c-3.59,0-6.51,3.37-6.51,7.52
		c0,5.84,5.73,8.2,11.23,10.67c8.42,3.82,18.64,8.31,18.64,21.34c0,11.9-8.54,19.43-22.35,19.43c-14.94,0-26.51-8.76-26.51-19.77
		h20.1c-0.34,1.8-0.45,3.59-0.45,4.94c0,7.75,3.59,13.14,8.87,13.14c4.49,0,7.19-3.82,7.19-8.31c0-7.19-6.85-9.66-14.04-13.14
		c-7.64-3.71-15.95-8.09-15.95-19.21c0-10.78,7.86-18.31,21.79-18.31C367.08,43.5,377.64,50.92,377.64,60.8z"/>
	<path class="st4" d="M405.39,85.51c-0.34,1.46-0.56,3.14-0.56,4.72c0,4.27,1.68,7.19,5.84,7.19c1.57,0,3.37-0.45,5.62-1.35
		l-0.45,2.25c-5.95,3.71-12.47,5.84-17.97,5.84c-8.09,0-13.59-4.38-13.59-13.25c0-2.47,0.45-4.83,0.9-6.74l8.76-37.06h-8.2
		l0.56-2.47c6.51-1.46,19.66-5.05,28.42-14.15h3.15l-3.26,14.15h11.91l-0.79,2.92h-11.79L405.39,85.51z"/>
</g>
<g>
	<polygon class="st4" points="57.22,65.59 57.22,119.8 92.44,119.8 119.54,92.69 92.44,65.59 	"/>
	<polygon class="st4" points="119.54,32.67 92.44,5.57 57.22,5.57 57.22,59.78 92.44,59.78 	"/>
	<polygon class="st4" points="5.33,28.61 5.33,119.8 51.41,119.8 51.41,28.61 28.37,5.57 	"/>
</g>
</svg>
